# xmcd
#
# Track frame offsets: 
#        150
#        12690
#        24550
#        38305
#        47090
#        56280
#        70905
#        86497
#        98340
#        108552
#        128110
#        139995
#        153537
#        164685
#        178492
#        190702
#        205745
#        223245
#        236342
#        252782
#        265732
#        278722
#        290936
#        302280
#        318780
#
# Disc length: 4398 seconds
#
# Revision: 5
# Processed by: cddbd v1.5.2PL0 Copyright (c) Steve Scherf et al.
# Submitted via: ExactAudioCopy v1.3
#
DISCID=63112c19
DTITLE=Stompin' Tom Connors - 25 of the Best Stompin' Tom Souvenirs
DYEAR=1998
DGENRE=National Folk
TTITLE0=Blue Berets
TTITLE1=Cross Canada
TTITLE2=Believe In Your Country
TTITLE3=Rubberhead
TTITLE4=The Ketchup Song
TTITLE5=Gumboot Cloggeroo
TTITLE6=Tillsonberg
TTITLE7=Red River Jane
TTITLE8=The Hockey Song
TTITLE9=Suzanne De Lafayette (aka Girl From Lafayette)
TTITLE10=Canada Day, Up Canada Way
TTITLE11=Alberta Rose
TTITLE12=Bud The Spud
TTITLE13=Old Flat-Top Guitar
TTITLE14=Prairie Moon
TTITLE15=Long Gone To The Yukon
TTITLE16=Polka Playin' Henry
TTITLE17=My Home's In Newfoundland
TTITLE18=I Am The Wind
TTITLE19=A Real Canadian Girl
TTITLE20=Blue Nose
TTITLE21=Okanagan Okee
TTITLE22=Sudbury Saturday Night
TTITLE23=Shakin' The Blues
TTITLE24=To It And At It
EXTD=YEAR: 1998
EXTT0=
EXTT1=
EXTT2=
EXTT3=
EXTT4=
EXTT5=
EXTT6=
EXTT7=
EXTT8=
EXTT9=
EXTT10=
EXTT11=
EXTT12=
EXTT13=
EXTT14=
EXTT15=
EXTT16=
EXTT17=
EXTT18=
EXTT19=
EXTT20=
EXTT21=
EXTT22=
EXTT23=
EXTT24=
PLAYORDER=
